<svg xmlns="http://www.w3.org/2000/svg" version="1.1" xmlns:xlink="http://www.w3.org/1999/xlink" xmlns:svgjs="http://svgjs.dev/svgjs" width="1000" height="1000" viewBox="0 0 1000 1000"><rect width="1000" height="1000" fill="#d2d6dc"></rect><g transform="matrix(0.7,0,0,0.7,149.74911509615197,118.10947368421051)"><svg viewBox="0 0 226 247" data-background-color="#d2d6dc" preserveAspectRatio="xMidYMid meet" height="1092" width="1000" xmlns="http://www.w3.org/2000/svg" xmlns:xlink="http://www.w3.org/1999/xlink"><g id="tight-bounds" transform="matrix(1,0,0,1,0.08100001675759927,-0.09999999999999432)"><svg viewBox="0 0 225.83776312601816 247.2" height="247.2" width="225.83776312601816"><g><svg></svg></g><g><svg viewBox="0 0 225.83776312601816 247.2" height="247.2" width="225.83776312601816"><g transform="matrix(1,0,0,1,0,47.215199999999996)"><svg viewBox="0 0 225.83776312601816 152.7696" height="152.7696" width="225.83776312601816"><g><svg viewBox="0 0 225.83776312601816 152.7696" height="152.7696" width="225.83776312601816"><g><svg viewBox="0 0 244.43135999999996 165.34737405196145" height="152.7696" width="225.83776312601816"><g transform="matrix(1,0,0,1,0,98.26189991836259)"><svg viewBox="0 0 244.43135999999996 67.08547413359886" height="67.08547413359886" width="244.43135999999996"><g><svg viewBox="0 0 244.43135999999996 67.08547413359886" height="67.08547413359886" width="244.43135999999996"><g><svg viewBox="0 0 244.43135999999996 38.03195269954877" height="38.03195269954877" width="244.43135999999996"><g transform="matrix(1,0,0,1,0,0)"><svg width="244.43135999999996" viewBox="0.9500000476837158 -37.5 321.30999755859375 50" height="38.03195269954877" data-palette-color="#636365"><path d="M9.25-11.8L9.25-11.8Q9.25-7.65 10.7-5.83 12.15-4 15.25-4L15.25-4Q18.1-4 20.68-5.33 23.25-6.65 25-9L25-9 26.15-8.5Q24.5-4.25 20.43-1.73 16.35 0.8 11.9 0.8L11.9 0.8Q6.1 0.8 3.53-2.13 0.95-5.05 0.95-11.5L0.95-11.5Q0.95-15.65 2-20.15 3.05-24.65 4.9-28.2L4.9-28.2Q7.3-32.75 10.73-35.13 14.15-37.5 18.4-37.5L18.4-37.5Q22.4-37.5 24.58-35.77 26.75-34.05 26.75-30.8L26.75-30.8Q26.75-28.55 25.85-27.38 24.95-26.2 23.25-26.2L23.25-26.2Q22.4-26.2 21.68-26.53 20.95-26.85 20.4-27.5L20.4-27.5Q21.3-27.95 22-29.33 22.7-30.7 22.7-32.1L22.7-32.1Q22.7-33.55 21.9-34.35 21.1-35.15 19.65-35.15L19.65-35.15Q17.45-35.15 15.3-32.48 13.15-29.8 11.55-25.1L11.55-25.1Q10.45-21.9 9.85-18.43 9.25-14.95 9.25-11.8ZM24.45-5.7L24.45-5.7Q24.45-6.35 24.55-7.18 24.65-8 24.85-8.95L24.85-8.95 30.2-34 37.6-35 31.85-8Q31.75-7.55 31.7-7.18 31.65-6.8 31.65-6.4L31.65-6.4Q31.65-5.4 32.12-4.98 32.6-4.55 33.7-4.55L33.7-4.55Q35.1-4.55 36.35-5.78 37.6-7 38.2-8.95L38.2-8.95 40.3-8.95Q38.7-4.4 36-2.05 33.3 0.3 29.8 0.3L29.8 0.3Q27.3 0.3 25.87-1.28 24.45-2.85 24.45-5.7ZM55.75-20.65L55.75-20.65Q55.75-16.5 52.35-13.43 48.95-10.35 44.25-10.1L44.25-10.1Q44.2-9.25 44.17-8.83 44.15-8.4 44.15-8.1L44.15-8.1Q44.15-5.8 44.92-4.85 45.7-3.9 47.75-3.9L47.75-3.9Q50.1-3.9 52.07-4.98 54.05-6.05 56.6-8.95L56.6-8.95 58.3-8.95Q55.4-4.25 52-1.98 48.6 0.3 44.55 0.3L44.55 0.3Q40.7 0.3 38.72-1.7 36.75-3.7 36.75-7.65L36.75-7.65Q36.75-10.5 37.65-13.7 38.55-16.9 40.05-19.4L40.05-19.4Q41.9-22.4 44.47-23.93 47.05-25.45 50.25-25.45L50.25-25.45Q53-25.45 54.37-24.28 55.75-23.1 55.75-20.65ZM50.65-22.8L50.65-22.8Q48.95-22.8 47.22-19.78 45.5-16.75 44.65-12.5L44.65-12.5Q47.55-12.7 49.72-15.18 51.9-17.65 51.9-20.75L51.9-20.75Q51.9-21.8 51.6-22.3 51.3-22.8 50.65-22.8ZM73.34-22.7L73.34-22.7 73.34-22.35 73.89-25 81.09-25 77.49-8Q77.39-7.55 77.34-7.18 77.29-6.8 77.29-6.4L77.29-6.4Q77.29-5.3 77.79-4.78 78.29-4.25 79.34-4.25L79.34-4.25Q80.64-4.25 81.69-5.48 82.74-6.7 83.39-8.95L83.39-8.95 85.49-8.95Q83.89-4.35 81.34-2.02 78.79 0.3 75.44 0.3L75.44 0.3Q73.29 0.3 72.02-0.9 70.74-2.1 70.54-4.3L70.54-4.3Q68.99-2 67.12-0.85 65.24 0.3 63.09 0.3L63.09 0.3Q59.99 0.3 58.22-1.8 56.44-3.9 56.44-7.75L56.44-7.75Q56.44-10.55 57.29-13.6 58.14-16.65 59.64-19.15L59.64-19.15Q61.49-22.1 63.94-23.68 66.39-25.25 69.29-25.25L69.29-25.25Q71.24-25.25 72.29-24.58 73.34-23.9 73.34-22.7ZM70.49-8.95L72.89-20.25Q72.89-21 72.34-21.58 71.79-22.15 70.84-22.15L70.84-22.15Q68.09-22.15 65.97-17.55 63.84-12.95 63.84-8.45L63.84-8.45Q63.84-6.5 64.39-5.53 64.94-4.55 66.34-4.55L66.34-4.55Q67.64-4.55 68.87-5.8 70.09-7.05 70.49-8.95L70.49-8.95ZM92.54-19L88.54 0 81.34 0 86.64-25 93.84-25 93.19-21.9Q95.39-23.75 96.67-24.38 97.94-25 99.24-25L99.24-25Q100.79-25 101.74-23.93 102.69-22.85 102.69-21.25L102.69-21.25Q102.69-19.7 101.69-18.65 100.69-17.6 99.09-17.6L99.09-17.6Q98.24-17.6 97.77-18 97.29-18.4 97.09-19.65L97.09-19.65Q96.94-20.45 96.74-20.68 96.54-20.9 96.19-20.9L96.19-20.9Q95.34-20.9 94.59-20.55 93.84-20.2 92.54-19L92.54-19ZM128.79-18.85L124.79 0 117.59 0 124.39-31.8 131.79-32.8 129.34-21.25 129.74-21.25Q132.59-21.25 134.71-24 136.84-26.75 136.84-29.95L136.84-29.95Q136.84-32.4 135.39-33.8 133.94-35.2 131.34-35.2L131.34-35.2Q125.14-35.2 121.49-31.93 117.84-28.65 117.84-23.05L117.84-23.05Q117.84-22.1 117.96-21.4 118.09-20.7 118.39-20.05L118.39-20.05Q118.49-19.85 118.51-19.78 118.54-19.7 118.54-19.65L118.54-19.65Q115.74-19.65 114.46-20.83 113.19-22 113.19-24.5L113.19-24.5Q113.19-27 114.86-29.5 116.54-32 119.54-34L119.54-34Q122.09-35.65 125.01-36.58 127.94-37.5 130.74-37.5L130.74-37.5Q135.99-37.5 139.04-35.3 142.09-33.1 142.09-29.5L142.09-29.5Q142.09-27.1 140.61-24.75 139.14-22.4 136.69-20.95L136.69-20.95Q138.44-20.45 139.29-19.23 140.14-18 140.14-15.95L140.14-15.95Q140.14-14.8 139.89-13.33 139.64-11.85 138.79-8.85L138.79-8.85Q138.09-6.3 137.89-5.2 137.69-4.1 137.69-3.3L137.69-3.3Q137.69-2.15 138.21-1.25 138.74-0.35 139.64 0L139.64 0Q138.19 0.4 136.91 0.63 135.64 0.85 134.69 0.85L134.69 0.85Q132.74 0.85 131.76 0.03 130.79-0.8 130.79-2.5L130.79-2.5Q130.79-3.35 131.04-4.58 131.29-5.8 132.04-8.65L132.04-8.65Q132.89-11.75 133.16-13.18 133.44-14.6 133.44-15.65L133.44-15.65Q133.44-17.35 132.69-18.2 131.94-19.05 130.44-19.05L130.44-19.05Q130.24-19.05 130.01-19.03 129.79-19 128.79-18.85L128.79-18.85ZM161.28-20.65L161.28-20.65Q161.28-16.5 157.88-13.43 154.48-10.35 149.78-10.1L149.78-10.1Q149.73-9.25 149.71-8.83 149.68-8.4 149.68-8.1L149.68-8.1Q149.68-5.8 150.46-4.85 151.23-3.9 153.28-3.9L153.28-3.9Q155.63-3.9 157.61-4.98 159.58-6.05 162.13-8.95L162.13-8.95 163.83-8.95Q160.93-4.25 157.53-1.98 154.13 0.3 150.08 0.3L150.08 0.3Q146.23 0.3 144.26-1.7 142.28-3.7 142.28-7.65L142.28-7.65Q142.28-10.5 143.18-13.7 144.08-16.9 145.58-19.4L145.58-19.4Q147.43-22.4 150.01-23.93 152.58-25.45 155.78-25.45L155.78-25.45Q158.53-25.45 159.91-24.28 161.28-23.1 161.28-20.65ZM156.18-22.8L156.18-22.8Q154.48-22.8 152.76-19.78 151.03-16.75 150.18-12.5L150.18-12.5Q153.08-12.7 155.26-15.18 157.43-17.65 157.43-20.75L157.43-20.75Q157.43-21.8 157.13-22.3 156.83-22.8 156.18-22.8ZM175.48-37.45L175.48-37.45Q177.93-37.45 179.66-35.9 181.38-34.35 181.38-32.05L181.38-32.05Q181.38-31.45 181.36-30.95 181.33-30.45 181.23-30L181.23-30 178.88-30Q178.98-30.8 178.98-30.98 178.98-31.15 178.98-31.35L178.98-31.35Q178.98-32.15 178.46-32.6 177.93-33.05 177.08-33.05L177.08-33.05Q175.83-33.05 174.91-32 173.98-30.95 173.58-28.95L173.58-28.95 172.73-25 176.38-25 176.03-23 172.33-23 166.58 4Q165.68 8.25 163.43 10.38 161.18 12.5 157.63 12.5L157.63 12.5Q155.18 12.5 153.46 10.95 151.73 9.4 151.73 7.1L151.73 7.1Q151.73 4.5 153.46 2.85 155.18 1.2 160.33-0.4L160.33-0.4 166.38-28.95Q167.28-33.15 169.58-35.3 171.88-37.45 175.48-37.45ZM159.33 4.15L159.98 1.25Q157.08 2.2 155.78 3.45 154.48 4.7 154.48 6.4L154.48 6.4Q154.48 7 155.11 7.53 155.73 8.05 156.48 8.05L156.48 8.05Q157.43 8.05 158.18 7.05 158.93 6.05 159.33 4.15L159.33 4.15ZM175.08-5.7L175.08-5.7Q175.08-6.35 175.18-7.18 175.28-8 175.48-8.95L175.48-8.95 180.83-34 188.23-35 182.48-8Q182.38-7.55 182.33-7.18 182.28-6.8 182.28-6.4L182.28-6.4Q182.28-5.4 182.75-4.98 183.23-4.55 184.33-4.55L184.33-4.55Q185.73-4.55 186.98-5.78 188.23-7 188.83-8.95L188.83-8.95 190.93-8.95Q189.33-4.4 186.63-2.05 183.93 0.3 180.43 0.3L180.43 0.3Q177.93 0.3 176.5-1.28 175.08-2.85 175.08-5.7ZM206.38-20.65L206.38-20.65Q206.38-16.5 202.98-13.43 199.58-10.35 194.88-10.1L194.88-10.1Q194.83-9.25 194.8-8.83 194.78-8.4 194.78-8.1L194.78-8.1Q194.78-5.8 195.55-4.85 196.33-3.9 198.38-3.9L198.38-3.9Q200.73-3.9 202.7-4.98 204.68-6.05 207.23-8.95L207.23-8.95 208.93-8.95Q206.03-4.25 202.63-1.98 199.23 0.3 195.18 0.3L195.18 0.3Q191.33 0.3 189.35-1.7 187.38-3.7 187.38-7.65L187.38-7.65Q187.38-10.5 188.28-13.7 189.18-16.9 190.68-19.4L190.68-19.4Q192.53-22.4 195.1-23.93 197.68-25.45 200.88-25.45L200.88-25.45Q203.63-25.45 205-24.28 206.38-23.1 206.38-20.65ZM201.28-22.8L201.28-22.8Q199.58-22.8 197.85-19.78 196.13-16.75 195.28-12.5L195.28-12.5Q198.18-12.7 200.35-15.18 202.53-17.65 202.53-20.75L202.53-20.75Q202.53-21.8 202.23-22.3 201.93-22.8 201.28-22.8ZM226.47-20.85L226.47-20.85Q226.47-19.15 225.75-18.18 225.02-17.2 223.82-17.2L223.82-17.2Q223.42-17.2 222.97-17.35 222.52-17.5 222.07-17.8L222.07-17.8Q222.37-18.6 222.52-19.35 222.67-20.1 222.67-20.75L222.67-20.75Q222.67-21.75 222.32-22.28 221.97-22.8 221.27-22.8L221.27-22.8Q219.07-22.8 216.97-17.73 214.87-12.65 214.87-8.1L214.87-8.1Q214.87-5.8 215.65-4.85 216.42-3.9 218.47-3.9L218.47-3.9Q220.82-3.9 222.8-4.98 224.77-6.05 227.32-8.95L227.32-8.95 229.02-8.95Q226.12-4.25 222.72-1.98 219.32 0.3 215.27 0.3L215.27 0.3Q211.42 0.3 209.45-1.7 207.47-3.7 207.47-7.65L207.47-7.65Q207.47-10.5 208.35-13.7 209.22-16.9 210.77-19.4L210.77-19.4Q212.62-22.4 215.2-23.93 217.77-25.45 220.92-25.45L220.92-25.45Q223.67-25.45 225.07-24.28 226.47-23.1 226.47-20.85ZM228.67-23L229.07-25 230.72-25 232.22-31.9 239.62-32.9 237.92-25 240.92-25 240.52-23 237.52-23 234.32-8Q234.22-7.55 234.17-7.18 234.12-6.8 234.12-6.4L234.12-6.4Q234.12-5.4 234.6-4.98 235.07-4.55 236.17-4.55L236.17-4.55Q237.57-4.55 238.82-5.78 240.07-7 240.67-8.95L240.67-8.95 242.77-8.95Q241.17-4.4 238.47-2.05 235.77 0.3 232.27 0.3L232.27 0.3Q229.77 0.3 228.35-1.28 226.92-2.85 226.92-5.7L226.92-5.7Q226.92-6.35 227.02-7.18 227.12-8 227.32-8.95L227.32-8.95 230.32-23 228.67-23ZM253.02-31.65L253.02-31.65Q253.02-30 251.84-28.85 250.67-27.7 249.02-27.7L249.02-27.7Q247.37-27.7 246.22-28.85 245.07-30 245.07-31.65L245.07-31.65Q245.07-33.3 246.22-34.48 247.37-35.65 249.02-35.65L249.02-35.65Q250.67-35.65 251.84-34.48 253.02-33.3 253.02-31.65ZM240.27-5.7L240.27-5.7Q240.27-6.35 240.37-7.18 240.47-8 240.67-8.95L240.67-8.95 244.07-25 251.27-25 247.67-8Q247.57-7.55 247.52-7.18 247.47-6.8 247.47-6.4L247.47-6.4Q247.47-5.4 247.94-4.98 248.42-4.55 249.52-4.55L249.52-4.55Q250.92-4.55 252.17-5.78 253.42-7 254.02-8.95L254.02-8.95 256.12-8.95Q254.52-4.4 251.82-2.05 249.12 0.3 245.62 0.3L245.62 0.3Q243.12 0.3 241.69-1.28 240.27-2.85 240.27-5.7ZM253.32-7.7L253.32-7.7Q253.32-10.55 254.24-13.75 255.17-16.95 256.77-19.45L256.77-19.45Q258.62-22.4 261.22-23.93 263.82-25.45 267.02-25.45L267.02-25.45Q270.22-25.45 271.82-23.45 273.42-21.45 273.42-17.45L273.42-17.45Q273.52-17.4 273.64-17.38 273.77-17.35 273.97-17.35L273.97-17.35Q275.52-17.35 277.67-18.2 279.82-19.05 281.67-20.35L281.67-20.35 282.12-19Q280.72-17.5 278.39-16.4 276.07-15.3 273.27-14.85L273.27-14.85Q272.67-8.1 269.37-3.95 266.07 0.2 261.32 0.2L261.32 0.2Q257.42 0.2 255.37-1.8 253.32-3.8 253.32-7.7ZM267.42-22.4L267.42-22.4Q265.02-22.4 262.89-17.55 260.77-12.7 260.77-8.35L260.77-8.35Q260.77-6 261.29-5.15 261.82-4.3 263.32-4.3L263.32-4.3Q265.17-4.3 266.84-7.3 268.52-10.3 269.12-14.7L269.12-14.7Q268.42-14.85 268.09-15.38 267.77-15.9 267.77-16.8L267.77-16.8Q267.77-17.75 268.17-18.45 268.57-19.15 269.32-19.5L269.32-19.5Q269.22-21.1 268.79-21.75 268.37-22.4 267.42-22.4ZM288.36-5.35L288.36-5.35Q288.36-6.25 288.59-7.6 288.81-8.95 289.51-11.9L289.51-11.9Q290.21-14.75 290.41-16 290.61-17.25 290.61-18.1L290.61-18.1Q290.61-19.35 290.16-20 289.71-20.65 288.81-20.65L288.81-20.65Q287.61-20.65 286.59-19.43 285.56-18.2 284.91-16.05L284.91-16.05 281.51 0 274.31 0 279.61-25 286.81-25 286.26-22.4Q287.51-23.8 288.96-24.5 290.41-25.2 292.11-25.2L292.11-25.2Q294.76-25.2 296.21-23.75 297.66-22.3 297.66-19.55L297.66-19.55Q297.66-18.4 297.39-16.82 297.11-15.25 296.31-12L296.31-12Q295.66-9.45 295.46-8.4 295.26-7.35 295.26-6.65L295.26-6.65Q295.26-5.6 295.76-5.08 296.26-4.55 297.26-4.55L297.26-4.55Q298.51-4.55 299.41-5.4 300.31-6.25 301.46-8.95L301.46-8.95 303.56-8.95Q301.96-4.3 299.69-2 297.41 0.3 294.26 0.3L294.26 0.3Q291.46 0.3 289.91-1.23 288.36-2.75 288.36-5.35ZM316.76-8.35L316.76-8.35Q316.76-7.75 316.71-7.3 316.66-6.85 316.56-6.45L316.56-6.45Q317.56-7.05 318.51-7.7 319.46-8.35 320.16-8.95L320.16-8.95 322.26-8.95Q320.71-7.15 318.84-5.63 316.96-4.1 314.61-2.7L314.61-2.7Q313.26-1.25 311.16-0.48 309.06 0.3 306.76 0.3L306.76 0.3Q303.41 0.3 301.44-1.53 299.46-3.35 299.46-6.1L299.46-6.1Q299.46-7.65 300.21-8.93 300.96-10.2 302.11-10.75L302.11-10.75Q303.81-13.8 305.29-17.28 306.76-20.75 308.26-25.55L308.26-25.55 315.66-26.55Q315.81-22.8 316.01-19.7 316.21-16.6 316.51-12.95L316.51-12.95Q316.66-10.85 316.71-10 316.76-9.15 316.76-8.35ZM308.56-20.15L308.56-20.15Q307.91-18.1 306.99-15.88 306.06-13.65 304.51-10.7L304.51-10.7Q305.06-10.45 305.36-10 305.66-9.55 305.66-8.95L305.66-8.95Q305.66-8 305.01-7.25 304.36-6.5 303.46-6.5L303.46-6.5Q302.96-6.5 302.61-6.68 302.26-6.85 302.11-7.15L302.11-7.15Q302.11-5.3 302.84-4.48 303.56-3.65 305.16-3.65L305.16-3.65Q307.21-3.65 308.36-4.85 309.51-6.05 309.51-8.3L309.51-8.3Q309.51-9 309.46-9.73 309.41-10.45 309.26-12.15L309.26-12.15Q309.01-14.5 308.86-16.3 308.71-18.1 308.56-20.15Z" opacity="1" transform="matrix(1,0,0,1,0,0)" fill="#636365" class="undefined-text-0" data-fill-palette-color="primary" id="text-0"></path></svg></g></svg></g><g transform="matrix(1,0,0,1,0,43.58172736527772)"><svg viewBox="0 0 244.43135999999996 23.50374676832114" height="23.50374676832114" width="244.43135999999996"><g transform="matrix(1,0,0,1,0,0)"><svg width="244.43135999999996" viewBox="3.549999952316284 -38 514 49.45000076293945" height="23.50374676832114" data-palette-color="#89939e"><path d="M22.95 0.1L22.95 0.1Q22.35 0.1 21.88-0.4 21.4-0.9 21.05-1.55L21.05-1.55 13.55-16.2 7.75-16.2 7.75-1.5Q7.75-0.75 7.1-0.38 6.45 0 5.65 0L5.65 0Q4.9 0 4.23-0.38 3.55-0.75 3.55-1.5L3.55-1.5 3.55-35.1Q3.55-35.7 3.98-36.1 4.4-36.5 5.05-36.55L5.05-36.55 14.2-36.55Q17.25-36.55 19.78-35.63 22.3-34.7 23.8-32.52 25.3-30.35 25.3-26.55L25.3-26.55Q25.3-23.5 24.33-21.5 23.35-19.5 21.65-18.38 19.95-17.25 17.85-16.8L17.85-16.8 25.25-2.75Q25.35-2.55 25.4-2.38 25.45-2.2 25.45-2.05L25.45-2.05Q25.45-1.5 25.08-1 24.7-0.5 24.13-0.2 23.55 0.1 22.95 0.1ZM7.75-32.75L7.75-19.7 14.2-19.7Q17.3-19.7 19.2-21.2 21.1-22.7 21.1-26.25L21.1-26.25Q21.1-29.8 19.2-31.28 17.3-32.75 14.2-32.75L14.2-32.75 7.75-32.75ZM52.21 0.4L52.21 0.4Q48.96 0.4 46.46-0.83 43.96-2.05 42.51-4.23 41.06-6.4 41.06-9.3L41.06-9.3 41.06-14.55Q41.06-17.1 42.43-19.25 43.81-21.4 46.06-22.7 48.31-24 51.01-24L51.01-24Q53.61-24 55.78-22.8 57.96-21.6 59.28-19.55 60.61-17.5 60.61-14.8L60.61-14.8Q60.61-12.8 59.96-11.93 59.31-11.05 58.31-10.85 57.31-10.65 56.21-10.65L56.21-10.65 45.21-10.65 45.21-9.15Q45.21-6.35 47.21-4.73 49.21-3.1 52.36-3.1L52.36-3.1Q54.21-3.1 55.31-3.6 56.41-4.1 57.11-4.58 57.81-5.05 58.36-5.05L58.36-5.05Q58.91-5.05 59.28-4.73 59.66-4.4 59.86-3.95 60.06-3.5 60.06-3.15L60.06-3.15Q60.06-2.5 59.11-1.68 58.16-0.85 56.38-0.23 54.61 0.4 52.21 0.4ZM45.21-15.25L45.21-13.45 54.46-13.45Q55.81-13.45 56.23-13.78 56.66-14.1 56.66-15.05L56.66-15.05Q56.66-16.55 55.93-17.82 55.21-19.1 53.91-19.9 52.61-20.7 50.96-20.7L50.96-20.7Q49.41-20.7 48.11-19.98 46.81-19.25 46.01-18 45.21-16.75 45.21-15.25L45.21-15.25ZM79.86 0L79.86 0Q79.01 0 78.44-0.4 77.86-0.8 77.86-1.45L77.86-1.45 77.86-28.65Q77.86-31.25 79.06-33.38 80.26-35.5 82.29-36.75 84.31-38 86.71-38L86.71-38 88.46-38Q89.26-38 89.71-37.45 90.16-36.9 90.16-36.15L90.16-36.15Q90.16-35.45 89.71-34.9 89.26-34.35 88.46-34.35L88.46-34.35 87.41-34.35Q85.86-34.35 84.64-33.63 83.41-32.9 82.71-31.68 82.01-30.45 82.01-29L82.01-29 82.01-23.7 88.86-23.7Q89.46-23.7 89.81-23.2 90.16-22.7 90.16-22.05L90.16-22.05Q90.16-21.45 89.81-20.95 89.46-20.45 88.86-20.45L88.86-20.45 82.01-20.45 82.01-1.45Q82.01-0.8 81.36-0.4 80.71 0 79.86 0ZM108.27 0L108.27 0Q107.37 0 106.79-0.48 106.22-0.95 106.22-1.5L106.22-1.5 106.22-36.55Q106.22-37.2 106.79-37.6 107.37-38 108.27-38L108.27-38Q109.12-38 109.74-37.6 110.37-37.2 110.37-36.55L110.37-36.55 110.37-1.5Q110.37-0.95 109.74-0.48 109.12 0 108.27 0ZM139.58 0.4L139.58 0.4Q136.33 0.4 133.83-0.83 131.33-2.05 129.88-4.23 128.43-6.4 128.43-9.3L128.43-9.3 128.43-14.55Q128.43-17.1 129.8-19.25 131.18-21.4 133.43-22.7 135.68-24 138.38-24L138.38-24Q140.98-24 143.15-22.8 145.33-21.6 146.65-19.55 147.98-17.5 147.98-14.8L147.98-14.8Q147.98-12.8 147.33-11.93 146.68-11.05 145.68-10.85 144.68-10.65 143.58-10.65L143.58-10.65 132.58-10.65 132.58-9.15Q132.58-6.35 134.58-4.73 136.58-3.1 139.73-3.1L139.73-3.1Q141.58-3.1 142.68-3.6 143.78-4.1 144.48-4.58 145.18-5.05 145.73-5.05L145.73-5.05Q146.28-5.05 146.65-4.73 147.03-4.4 147.23-3.95 147.43-3.5 147.43-3.15L147.43-3.15Q147.43-2.5 146.48-1.68 145.53-0.85 143.75-0.23 141.98 0.4 139.58 0.4ZM132.58-15.25L132.58-13.45 141.83-13.45Q143.18-13.45 143.6-13.78 144.03-14.1 144.03-15.05L144.03-15.05Q144.03-16.55 143.3-17.82 142.58-19.1 141.28-19.9 139.98-20.7 138.33-20.7L138.33-20.7Q136.78-20.7 135.48-19.98 134.18-19.25 133.38-18 132.58-16.75 132.58-15.25L132.58-15.25ZM174.38 0.4L174.38 0.4Q170.93 0.4 168.71-0.9 166.48-2.2 165.41-4.38 164.33-6.55 164.33-9.3L164.33-9.3 164.33-14.3Q164.33-17 165.41-19.2 166.48-21.4 168.71-22.7 170.93-24 174.33-24L174.33-24Q176.53-24 178.18-23.45 179.83-22.9 180.73-22.1 181.63-21.3 181.63-20.55L181.63-20.55Q181.63-20.15 181.41-19.68 181.18-19.2 180.81-18.85 180.43-18.5 179.93-18.5L179.93-18.5Q179.43-18.5 178.86-18.95 178.28-19.4 177.31-19.83 176.33-20.25 174.58-20.25L174.58-20.25Q171.53-20.25 170.01-18.65 168.48-17.05 168.48-14.3L168.48-14.3 168.48-9.3Q168.48-6.55 170.01-4.95 171.53-3.35 174.63-3.35L174.63-3.35Q176.43-3.35 177.43-3.83 178.43-4.3 179.01-4.73 179.58-5.15 180.13-5.15L180.13-5.15Q180.68-5.15 181.08-4.83 181.48-4.5 181.71-4.05 181.93-3.6 181.93-3.15L181.93-3.15Q181.93-2.4 180.98-1.58 180.03-0.75 178.33-0.18 176.63 0.4 174.38 0.4ZM208.44 0L206.89 0Q202.84 0 200.71-1.8 198.59-3.6 198.59-7.55L198.59-7.55 198.59-33.3Q198.59-33.95 199.24-34.35 199.89-34.75 200.64-34.75L200.64-34.75Q201.44-34.75 202.09-34.35 202.74-33.95 202.74-33.3L202.74-33.3 202.74-23.7 209.04-23.7Q209.64-23.7 209.96-23.2 210.29-22.7 210.29-22.05L210.29-22.05Q210.29-21.4 209.96-20.93 209.64-20.45 209.04-20.45L209.04-20.45 202.74-20.45 202.74-7.55Q202.74-5.4 203.66-4.53 204.59-3.65 206.89-3.65L206.89-3.65 208.44-3.65Q209.34-3.65 209.79-3.1 210.24-2.55 210.24-1.85L210.24-1.85Q210.24-1.15 209.79-0.58 209.34 0 208.44 0L208.44 0ZM248.9 11.45L248.9 11.45Q248.1 11.45 247.55 11.08 247 10.7 247 9.6L247 9.6Q247 8.9 247.28 8.35 247.55 7.8 248.2 7.8L248.2 7.8Q249.3 7.8 250.4 7.18 251.5 6.55 252.53 5.33 253.55 4.1 254.3 2.45 255.05 0.8 255.4-1.2L255.4-1.2 247.1-21.45Q246.95-21.75 246.95-22L246.95-22Q246.95-22.55 247.4-23 247.85-23.45 248.48-23.73 249.1-24 249.65-24L249.65-24Q250.05-24 250.45-23.8 250.85-23.6 250.95-23.15L250.95-23.15 257.6-5.75 263.55-23.15Q263.7-23.6 264.08-23.8 264.45-24 264.85-24L264.85-24Q265.35-24 265.98-23.73 266.6-23.45 267.05-23 267.5-22.55 267.5-21.95L267.5-21.95Q267.5-21.65 267.4-21.45L267.4-21.45 259.75-1.1Q259 0.95 258.15 3.15 257.3 5.35 256.13 7.23 254.95 9.1 253.2 10.28 251.45 11.45 248.9 11.45ZM292.66 0.4L292.66 0.4Q290.01 0.4 287.76-0.98 285.51-2.35 284.16-4.55 282.81-6.75 282.81-9.3L282.81-9.3 282.81-14.4Q282.81-16.95 284.13-19.13 285.46-21.3 287.71-22.65 289.96-24 292.66-24L292.66-24Q295.31-24 297.56-22.68 299.81-21.35 301.18-19.2 302.56-17.05 302.56-14.4L302.56-14.4 302.56-9.3Q302.56-6.8 301.18-4.58 299.81-2.35 297.56-0.98 295.31 0.4 292.66 0.4ZM292.66-3.35L292.66-3.35Q294.26-3.35 295.53-4.2 296.81-5.05 297.61-6.43 298.41-7.8 298.41-9.3L298.41-9.3 298.41-14.4Q298.41-15.85 297.63-17.2 296.86-18.55 295.56-19.4 294.26-20.25 292.66-20.25L292.66-20.25Q291.06-20.25 289.76-19.4 288.46-18.55 287.71-17.2 286.96-15.85 286.96-14.4L286.96-14.4 286.96-9.3Q286.96-7.8 287.71-6.43 288.46-5.05 289.76-4.2 291.06-3.35 292.66-3.35ZM329.86 0.4L329.86 0.4Q327.11 0.4 324.86-0.95 322.61-2.3 321.26-4.5 319.91-6.7 319.91-9.2L319.91-9.2 319.91-22.2Q319.91-22.75 320.54-23.23 321.16-23.7 322.01-23.7L322.01-23.7Q322.86-23.7 323.46-23.23 324.06-22.75 324.06-22.2L324.06-22.2 324.06-9.2Q324.06-7.75 324.84-6.4 325.61-5.05 326.91-4.2 328.21-3.35 329.81-3.35L329.81-3.35Q331.41-3.35 332.71-4.2 334.01-5.05 334.76-6.4 335.51-7.75 335.51-9.2L335.51-9.2 335.51-22.25Q335.51-22.85 336.16-23.28 336.81-23.7 337.61-23.7L337.61-23.7Q338.56-23.7 339.11-23.28 339.66-22.85 339.66-22.25L339.66-22.25 339.66-9.2Q339.66-6.65 338.34-4.48 337.01-2.3 334.76-0.95 332.51 0.4 329.86 0.4ZM387.38 0.4L387.38 0.4Q384.98 0.4 383.13-0.23 381.28-0.85 380.23-1.7 379.18-2.55 379.18-3.4L379.18-3.4Q379.18-3.8 379.38-4.23 379.58-4.65 379.9-4.98 380.23-5.3 380.63-5.3L380.63-5.3Q381.23-5.3 381.93-4.73 382.63-4.15 383.83-3.55 385.03-2.95 387.28-2.95L387.28-2.95Q389.93-2.95 390.98-3.93 392.03-4.9 392.03-6.1L392.03-6.1Q392.03-7.65 391.13-8.47 390.23-9.3 388.83-9.78 387.43-10.25 385.88-10.7 384.33-11.15 382.93-11.83 381.53-12.5 380.65-13.73 379.78-14.95 379.78-17L379.78-17Q379.78-18.65 380.58-20.25 381.38-21.85 383.18-22.93 384.98-24 387.98-24L387.98-24Q389.73-24 391.35-23.63 392.98-23.25 394-22.63 395.03-22 395.03-21.3L395.03-21.3Q395.03-21 394.83-20.5 394.63-20 394.28-19.6 393.93-19.2 393.38-19.2L393.38-19.2Q392.98-19.2 392.25-19.58 391.53-19.95 390.5-20.3 389.48-20.65 388.03-20.65L388.03-20.65Q386.38-20.65 385.38-20.08 384.38-19.5 383.93-18.73 383.48-17.95 383.48-17.15L383.48-17.15Q383.48-15.9 384.35-15.2 385.23-14.5 386.65-14.08 388.08-13.65 389.63-13.23 391.18-12.8 392.58-12.03 393.98-11.25 394.88-9.9 395.78-8.55 395.78-6.3L395.78-6.3Q395.78-3.25 393.58-1.43 391.38 0.4 387.38 0.4ZM422.68 0L421.13 0Q417.08 0 414.96-1.8 412.83-3.6 412.83-7.55L412.83-7.55 412.83-33.3Q412.83-33.95 413.48-34.35 414.13-34.75 414.88-34.75L414.88-34.75Q415.68-34.75 416.33-34.35 416.98-33.95 416.98-33.3L416.98-33.3 416.98-23.7 423.28-23.7Q423.88-23.7 424.21-23.2 424.53-22.7 424.53-22.05L424.53-22.05Q424.53-21.4 424.21-20.93 423.88-20.45 423.28-20.45L423.28-20.45 416.98-20.45 416.98-7.55Q416.98-5.4 417.91-4.53 418.83-3.65 421.13-3.65L421.13-3.65 422.68-3.65Q423.58-3.65 424.03-3.1 424.48-2.55 424.48-1.85L424.48-1.85Q424.48-1.15 424.03-0.58 423.58 0 422.68 0L422.68 0ZM440.54 11.45L440.54 11.45Q439.74 11.45 439.19 11.08 438.64 10.7 438.64 9.6L438.64 9.6Q438.64 8.9 438.91 8.35 439.19 7.8 439.84 7.8L439.84 7.8Q440.94 7.8 442.04 7.18 443.14 6.55 444.16 5.33 445.19 4.1 445.94 2.45 446.69 0.8 447.04-1.2L447.04-1.2 438.74-21.45Q438.59-21.75 438.59-22L438.59-22Q438.59-22.55 439.04-23 439.49-23.45 440.11-23.73 440.74-24 441.29-24L441.29-24Q441.69-24 442.09-23.8 442.49-23.6 442.59-23.15L442.59-23.15 449.24-5.75 455.19-23.15Q455.34-23.6 455.71-23.8 456.09-24 456.49-24L456.49-24Q456.99-24 457.61-23.73 458.24-23.45 458.69-23 459.14-22.55 459.14-21.95L459.14-21.95Q459.14-21.65 459.04-21.45L459.04-21.45 451.39-1.1Q450.64 0.95 449.79 3.15 448.94 5.35 447.76 7.23 446.59 9.1 444.84 10.28 443.09 11.45 440.54 11.45ZM477.85 0L477.85 0Q476.95 0 476.37-0.48 475.8-0.95 475.8-1.5L475.8-1.5 475.8-36.55Q475.8-37.2 476.37-37.6 476.95-38 477.85-38L477.85-38Q478.7-38 479.32-37.6 479.95-37.2 479.95-36.55L479.95-36.55 479.95-1.5Q479.95-0.95 479.32-0.48 478.7 0 477.85 0ZM509.15 0.4L509.15 0.4Q505.9 0.4 503.4-0.83 500.9-2.05 499.45-4.23 498-6.4 498-9.3L498-9.3 498-14.55Q498-17.1 499.38-19.25 500.75-21.4 503-22.7 505.25-24 507.95-24L507.95-24Q510.55-24 512.73-22.8 514.9-21.6 516.23-19.55 517.55-17.5 517.55-14.8L517.55-14.8Q517.55-12.8 516.9-11.93 516.25-11.05 515.25-10.85 514.25-10.65 513.15-10.65L513.15-10.65 502.15-10.65 502.15-9.15Q502.15-6.35 504.15-4.73 506.15-3.1 509.3-3.1L509.3-3.1Q511.15-3.1 512.25-3.6 513.35-4.1 514.05-4.58 514.75-5.05 515.3-5.05L515.3-5.05Q515.85-5.05 516.23-4.73 516.6-4.4 516.8-3.95 517-3.5 517-3.15L517-3.15Q517-2.5 516.05-1.68 515.1-0.85 513.33-0.23 511.55 0.4 509.15 0.4ZM502.15-15.25L502.15-13.45 511.4-13.45Q512.75-13.45 513.18-13.78 513.6-14.1 513.6-15.05L513.6-15.05Q513.6-16.55 512.88-17.82 512.15-19.1 510.85-19.9 509.55-20.7 507.9-20.7L507.9-20.7Q506.35-20.7 505.05-19.98 503.75-19.25 502.95-18 502.15-16.75 502.15-15.25L502.15-15.25Z" opacity="1" transform="matrix(1,0,0,1,0,0)" fill="#89939e" class="undefined-text-1" data-fill-palette-color="secondary" id="text-1"></path></svg></g></svg></g></svg></g></svg></g><g transform="matrix(1,0,0,1,75.8763273715116,0)"><svg viewBox="0 0 92.67870525697677 92.71212525263364" height="92.71212525263364" width="92.67870525697677"><g><svg xmlns="http://www.w3.org/2000/svg" xmlns:xlink="http://www.w3.org/1999/xlink" version="1.1" x="0" y="0" viewBox="0.5 0.47438886761665344 71.0256118774414 71.05122375488281" enable-background="new 0 0 72 72" xml:space="preserve" height="92.71212525263364" width="92.67870525697677" class="icon-icon-0" data-fill-palette-color="accent" id="icon-0"><g fill="#89939e" data-fill-palette-color="accent"><path d="M69.4 34H5.6c-0.6 0-1.1-0.5-1.1-1.1V2.6c0-1-0.7-1.9-1.7-2.1-1.3-0.2-2.3 0.8-2.3 2v66.9c0 1 0.7 1.9 1.7 2.1 1.3 0.2 2.3-0.8 2.3-2V39.1C4.5 38.5 5 38 5.6 38h63.9c1.2 0 2.2-1.1 2-2.3C71.3 34.7 70.4 34 69.4 34z" fill="#89939e" data-fill-palette-color="accent"></path><g fill="#89939e" data-fill-palette-color="accent"><path d="M61.9 28.2v-8.5c0-1.3-1.3-2.2-2.5-1.7l-13.3 5.2c-0.4 0.2-0.9 0.2-1.3 0l-15.1-6c-0.4-0.2-0.9-0.2-1.3 0L13.7 23c-0.7 0.3-1.1 0.9-1.1 1.7v3.5c0 1 0.8 1.8 1.8 1.8h45.7C61.1 30 61.9 29.2 61.9 28.2z" fill="#89939e" data-fill-palette-color="accent"></path><path d="M12.6 43.8v8.5c0 1.3 1.3 2.2 2.5 1.7l13.3-5.2c0.4-0.2 0.9-0.2 1.3 0l15.1 6c0.4 0.2 0.9 0.2 1.3 0L60.7 49c0.7-0.3 1.1-0.9 1.1-1.7v-3.5c0-1-0.8-1.8-1.8-1.8H14.4C13.4 42 12.6 42.8 12.6 43.8z" fill="#89939e" data-fill-palette-color="accent"></path></g></g></svg></g></svg></g><g></g></svg></g></svg></g></svg></g><path d="M0 41.215L0 1 225.838 1 225.838 41.215 223.879 41.215 223.879 2.959 1.959 2.959 1.959 41.215 0 41.215M0 205.985L0 246.2 225.838 246.2 225.838 205.985 223.879 205.985 223.879 244.241 1.959 244.241 1.959 205.985 0 205.985" fill="#636365" stroke="transparent" data-fill-palette-color="primary"></path></svg></g><defs></defs></svg><rect width="225.83776312601816" height="247.2" fill="none" stroke="none" visibility="hidden"></rect></g></svg></g></svg>